<svg xmlns="http://www.w3.org/2000/svg" viewBox="0 0 421.49 474.96"><title>icon</title><g id="Layer_2" data-name="Layer 2"><g id="Layer_1-2" data-name="Layer 1"><path d="M388.17,336c-1.75-1.2-3-2.17-4.34-2.95Q328.42,301.27,273,269.57c-11.12-6.36-22.35-12.53-33.28-19.2-3.72-2.27-6.38-2-10,.11q-58.7,34.12-117.57,68c-1.38.8-2.83,1.5-5.13,2.71,0-10.27,0-19.68,0-29.09,0-34.31.11-68.63-.05-102.94,0-4.09,1.33-6.3,4.77-8.27Q170.68,147.08,229.4,113c3.28-1.91,5.46-1.51,8.44.2q55.22,31.7,110.55,63.21c22.09,12.62,44.07,25.43,66.34,37.73,5.17,2.85,6.76,6.15,6.73,11.81-.2,32.55,0,65.11,0,97.66,0,8.59.18,17.2-.23,25.78a8.22,8.22,0,0,1-3.58,5.68c-23.29,13.68-46.72,27.12-70.1,40.63L221,468.81c-1,.58-2.29.82-3.1,1.59-7.67,7.2-14.45,4.87-22.81,0C131.6,433.19,67.79,396.53,4,359.79c-2.77-1.6-4-3.35-4-6.66q.11-102,0-203.91c0-8.83.13-17.66-.05-26.49a6.38,6.38,0,0,1,3.6-6.41Q62.42,82.49,121.16,48.53C148.57,32.71,176,17,203.33,1c3-1.75,5-.86,7.27.47q31.52,18.23,63,36.49l134.29,77.68c2,1.16,4,2.38,6.43,3.86L399,146.1c-7-4-13.86-7.89-20.69-11.84q-84-48.56-168.14-97a9,9,0,0,0-7.6-.1Q118.15,85.57,33.86,134.3c-3.23,1.86-3.08,4.29-3.08,7.12q0,83.72,0,167.44c0,9-.18,18,.13,27a7.5,7.5,0,0,0,3,5.38c27.19,15.94,54.49,31.67,81.79,47.43q38.11,22,76.25,44c1,.58,2.25.86,3,1.63,8.33,8.12,15.67,4.87,24.49-.31,54.72-32.11,109.79-63.62,164.74-95.34C385.4,337.94,386.43,337.14,388.17,336Z"/></g></g></svg>