<svg xmlns="http://www.w3.org/2000/svg" viewBox="0 0 405.12 456.51"><defs><style>.cls-1{fill:#fff;}</style></defs><title>icon-white</title><g id="Layer_2" data-name="Layer 2"><g id="Layer_1-2" data-name="Layer 1"><path class="cls-1" d="M373.09,322.9c-1.69-1.15-2.87-2.09-4.17-2.83q-53.25-30.5-106.53-61c-10.68-6.11-21.48-12-32-18.45-3.58-2.19-6.13-1.89-9.57.11q-56.42,32.79-113,65.32c-1.33.77-2.72,1.44-4.93,2.6,0-9.87,0-18.91,0-28,0-33,.11-66-.05-98.94,0-3.93,1.28-6.06,4.59-8q56.61-32.46,113-65.23c3.15-1.83,5.25-1.45,8.11.19q53.07,30.47,106.25,60.75c21.23,12.13,42.36,24.44,63.76,36.26,5,2.74,6.5,5.91,6.47,11.35-.19,31.29,0,62.58,0,93.87,0,8.26.18,16.53-.22,24.77a7.9,7.9,0,0,1-3.44,5.46C379,354.4,356.52,367.32,334,380.31L212.43,450.6c-1,.56-2.2.79-3,1.52-7.37,6.92-13.89,4.68-21.92,0-61-35.73-122.37-71-183.65-106.28C1.21,344.27,0,342.59,0,339.41q.11-98,0-196c0-8.49.13-17-.05-25.46a6.13,6.13,0,0,1,3.46-6.16Q60,79.28,116.45,46.64c26.34-15.2,52.73-30.33,79-45.71,2.87-1.68,4.76-.83,7,.46Q232.71,18.91,263,36.47l129.07,74.66c1.92,1.11,3.81,2.29,6.18,3.71l-14.7,25.59c-6.72-3.84-13.32-7.59-19.88-11.38Q282.88,82.37,202,35.81a8.69,8.69,0,0,0-7.31-.1Q113.56,82.24,32.55,129.08c-3.1,1.78-3,4.12-3,6.84q0,80.47,0,160.94c0,8.65-.17,17.3.13,25.94A7.21,7.21,0,0,0,32.65,328c26.13,15.32,52.38,30.44,78.61,45.59q36.63,21.15,73.29,42.24a14.11,14.11,0,0,1,2.92,1.57c8,7.81,15.06,4.68,23.54-.3,52.6-30.86,105.53-61.15,158.34-91.64C370.43,324.82,371.42,324,373.09,322.9Z"/></g></g></svg>